<svg xmlns="http://www.w3.org/2000/svg" viewBox="0 0 166.37 36.48"><defs><style>.cls-1{isolation:isolate;}.cls-2{fill:#fff;}</style></defs><g id="レイヤー_2" data-name="レイヤー 2"><g id="レイヤー_1-2" data-name="レイヤー 1"><g class="cls-1"><path class="cls-2" d="M0,33.51V3L3,0H15.7l3,3v7.53H12.58v-4l-.67-.72h-5l-.72.72V29.81l.72.72h5.05l.67-.72v-7.3h-3v-6h9.07v17l-3,3H3Z"/><path class="cls-2" d="M22.61,36.48V0H40.08V5.9H28.7V15h8.45v5.9H28.7v9.7H40.08v5.9Z"/><path class="cls-2" d="M57.46,28.61H50l-1.64,7.87H42.09L50.74,0h5.95l8.64,36.48H59.09Zm-1.2-5.9L53.71,10.42,51.17,22.71Z"/><path class="cls-2" d="M68,36.48V0H83.76l3,3V19.3l-3,3,3,14.21h-6l-3-14.21H74.11V36.48ZM80,16.37l.67-.72v-9L80,6H74.11V16.37Z"/><path class="cls-2" d="M96.58,7.39,98.69,9.5v4.23l-2.11,2.11H92.35l-2.11-2.11V9.5l2.11-2.11Zm0,13,2.11,2.12v4.22L96.58,28.8H92.35l-2.11-2.11V22.47l2.11-2.12Z"/><path class="cls-2" d="M118,0l3,3V33.51l-3,3H102.57V0Zm-3.89,30.53.68-.72V6.53l-.68-.72h-5.42V30.53Z"/><path class="cls-2" d="M143.47,3V33.51l-3,3H128.21l-3-3V3l3-3H140.5Zm-6.86,3H132l-.67.68V29.91l.67.67h4.61l.72-.67V6.63Z"/><path class="cls-2" d="M147.69,33.51V3l3-3h12.72l3,3v7.53h-6.1v-4l-.67-.72h-5l-.72.72V29.81l.72.72h5l.67-.72v-7.3h-3v-6h9.08v17l-3,3H150.67Z"/></g></g></g></svg>