<svg xmlns="http://www.w3.org/2000/svg" viewBox="0 0 268.29 33.6"><defs><style>.cls-1{isolation:isolate;}.cls-2{fill:#fff;}.cls-3{fill:#f30b7b;}</style></defs><g id="レイヤー_2" data-name="レイヤー 2"><g id="レイヤー_1-2" data-name="レイヤー 1"><g class="cls-1"><path class="cls-2" d="M160.2,16.37c3.36.72,5.23,3.22,5.23,6.86,0,5.67-4.61,9.56-10.9,9.56H136.58l3.94-32h14.35c5.14,0,8.21,1.49,9.79,4.7a8.82,8.82,0,0,1,.82,3.46c0,3.79-1.92,6.38-5.33,7.15Zm-10.9,3.41-.67,5.52h.77c3.41,0,4.89-.87,4.89-3.31,0-1.54-.91-2.21-3-2.21Zm1.39-11.33-.57,4.61h1c2.5,0,3.61-.72,3.61-2.5,0-1.44-.87-2.11-2.41-2.11Z"/><path class="cls-2" d="M205.13,16.51c0,9.7-7.54,17.09-17.53,17.09s-17.9-7.1-17.9-16.37C169.7,7.54,177.48,0,187.36,0A19.35,19.35,0,0,1,199.8,4.42,15,15,0,0,1,205.13,16.51Zm-11.72.2a5.81,5.81,0,0,0-5.66-6.1,6.54,6.54,0,0,0-6.34,6.72c0,3.55,2.4,6.19,5.67,6.19C190.73,23.52,193.41,20.59,193.41,16.71Z"/><path class="cls-2" d="M241.94.77l-2.16,17.71c-.86,6.82-1.63,8.79-4.46,11.38S229,33.6,224.47,33.6s-8.55-1.2-11.33-3.45c-2.54-2.07-3.6-4.56-3.6-8.4a24.21,24.21,0,0,1,.14-2.55L212,.77h11.76l-2.16,17.71c-.15,1.15-.24,2-.24,2.35a2.66,2.66,0,0,0,2.88,3c2.21,0,3.26-1.39,3.74-4.9L230.18.77Z"/><path class="cls-2" d="M268.29.77,267,10.85l-5.52-.34-2.73,22.28H247l2.73-22.28-5.52.34L245.44.77Z"/></g><path class="cls-3" d="M128.76.77H4.16L0,32.79H113.2l1.54-4.28h7.87l.24,4.28h11.86ZM117.43,21.22l2.16-5.81a30.18,30.18,0,0,0,1.44-4.8h.38a22.75,22.75,0,0,0-.14,2.54c0,.92,0,1.73.1,2.26l.48,5.81Z"/></g></g></svg>