<svg xmlns="http://www.w3.org/2000/svg" viewBox="0 0 271.2 359.62"><defs><style>.cls-1{fill:#fff;}</style></defs>
<path class="cls-1" d="M30.54,229c-4.14,3-6.42,4-9,4-7,0-12.18-5.52-15.48-12C2.16,213.15,0,202.23,0,191.79c0-11.4,2.46-22.2,6.06-29.52s8.88-12.48,15.12-12.48c1.92,0,5,.6,9.36,4.08v24.84c-3.36-8.28-7.32-8.76-9.06-8.76-3,0-5.28,1.8-7.2,5.28-2.46,4.56-3.48,10.8-3.48,16.44s1.14,11.64,3.24,15.6c1.74,3.24,4.5,5.52,7.44,5.52,1.56,0,5.4-.36,9.06-8.4Z"/><path class="cls-1" d="M55.14,151.11c3,0,6.84,1,9.78,7.08,2.28,4.68,3.42,11.64,3.42,18,0,6.84-1.2,12.84-3.18,16.68a11.29,11.29,0,0,1-5.52,5.52l12.54,32.76H59.28l-10-30.72v30.72H38.94v-80ZM49.32,187h2a5.81,5.81,0,0,0,5-3.24A16.51,16.51,0,0,0,57.66,177a15.43,15.43,0,0,0-1.38-6.72,5.38,5.38,0,0,0-5-3.12h-2Z"/><path class="cls-1" d="M99.9,168.75H87.54v13.32h11.7v17.64H87.54v13.8H99.9v17.64H77.16v-80H99.9Z"/><path class="cls-1" d="M132.72,217.71H118.2l-2.7,13.44h-11l15.36-80h11.34l15.06,80h-11.1ZM130,201.87,125.46,176l-4.38,25.92Z"/><path class="cls-1" d="M163,168.75v62.4H152.64v-62.4h-8.52V151.11h27.42v17.64Z"/><path class="cls-1" d="M189.54,151.11v80H179.16v-80Z"/><path class="cls-1" d="M206.88,151.11l9.6,48.72,9.72-48.72h11.28l-17,80h-8.1l-16.8-80Z"/><path class="cls-1" d="M265,168.75H252.66v13.32h11.7v17.64h-11.7v13.8H265v17.64H242.28v-80H265Z"/><path class="cls-1" d="M19.72,0l9.84,36.59L41.54,0H53.25L64.37,36.59,75.07,0H90.44L72.35,56.63h-15L47.05,23.86,36.19,56.63H21.25L4.35,0Z"/><path class="cls-1" d="M128.57,12.48H111.08V21.9h16.55V34.38H111.08v9.77h17.49V56.63H96.39V0h32.18Z"/><path class="cls-1" d="M44.1,122.35H23.63l-3.8,9.47H4.35L26,75.41H42l21.23,56.41H47.57Zm-3.89-11.17L33.87,92.92l-6.18,18.26Z"/><path class="cls-1" d="M92.56,75.41c4.23,0,9.65.67,13.79,5a18.58,18.58,0,0,1,4.82,12.68,16.28,16.28,0,0,1-4.48,11.76,15.78,15.78,0,0,1-7.78,3.89l17.67,23.09H98.4l-14-21.65v21.65H69.73V75.41Zm-8.2,25.29h2.79c2.2,0,5.33-.6,7.1-2.29a7,7,0,0,0,1.87-4.73,6.66,6.66,0,0,0-2-4.74c-1.35-1.35-3.81-2.2-7-2.2H84.36Z"/><path class="cls-1" d="M154.81,87.84H137.39v9.39h16.49v12.43H137.39v9.73h17.42v12.43h-32V75.41h32.05Z"/><path class="cls-1" d="M36.34,270.53v53.05H18.69V270.53H4.21v-15H50.83v15Z"/><path class="cls-1" d="M99.38,270.53h-21v11.33H98.25v15H78.36v11.73h21v15H60.72v-68H99.38Z"/><path class="cls-1" d="M154.15,312.15H129.46l-4.58,11.43H106.21l26.11-68H151.6l25.6,68H158.33Zm-4.69-13.46-7.65-22-7.45,22Z"/><path class="cls-1" d="M182,323.58l11.53-68H211l13.77,36.31,14.59-36.31H257l10.2,68H249.52l-5-39.17L228.1,323.58h-7l-15.71-39.17-5.81,39.17Z"/><rect class="cls-1" x="4.04" y="348.62" width="267.16" height="11"/>
</svg>